<svg width="165" height="32" viewBox="0 0 165 32" fill="none" xmlns="http://www.w3.org/2000/svg">
<path d="M12.4659 31.5455V22.2045H12.3182C12.0909 22.6894 11.7689 23.1705 11.3523 23.6477C10.9432 24.1174 10.4091 24.5076 9.75 24.8182C9.09849 25.1288 8.30303 25.2841 7.36364 25.2841C6.03788 25.2841 4.83712 24.9432 3.76136 24.2614C2.69318 23.572 1.8447 22.5606 1.21591 21.2273C0.594697 19.8864 0.284091 18.2424 0.284091 16.2955C0.284091 14.2955 0.606061 12.6326 1.25 11.3068C1.89394 9.97348 2.75 8.97727 3.81818 8.31818C4.89394 7.65152 6.07197 7.31818 7.35227 7.31818C8.32955 7.31818 9.14394 7.48485 9.79545 7.81818C10.4545 8.14394 10.9848 8.55303 11.3864 9.04545C11.7955 9.5303 12.1061 10.0076 12.3182 10.4773H12.5227V7.54545H17.2955V31.5455H12.4659ZM8.89773 21.4318C9.67803 21.4318 10.3371 21.2197 10.875 20.7955C11.4205 20.3636 11.8371 19.7614 12.125 18.9886C12.4205 18.2159 12.5682 17.3106 12.5682 16.2727C12.5682 15.2348 12.4242 14.3333 12.1364 13.5682C11.8485 12.803 11.4318 12.2121 10.8864 11.7955C10.3409 11.3788 9.67803 11.1705 8.89773 11.1705C8.10227 11.1705 7.43182 11.3864 6.88636 11.8182C6.34091 12.25 5.92803 12.8485 5.64773 13.6136C5.36742 14.3788 5.22727 15.2652 5.22727 16.2727C5.22727 17.2879 5.36742 18.1856 5.64773 18.9659C5.93561 19.7386 6.34848 20.3447 6.88636 20.7841C7.43182 21.2159 8.10227 21.4318 8.89773 21.4318ZM32.375 17.5682V7.54545H37.2159V25H32.5682V21.8295H32.3864C31.9924 22.8523 31.3371 23.6742 30.4205 24.2955C29.5114 24.9167 28.4015 25.2273 27.0909 25.2273C25.9242 25.2273 24.8977 24.9621 24.0114 24.4318C23.125 23.9015 22.4318 23.1477 21.9318 22.1705C21.4394 21.1932 21.1894 20.0227 21.1818 18.6591V7.54545H26.0227V17.7955C26.0303 18.8258 26.3068 19.6402 26.8523 20.2386C27.3977 20.8371 28.1288 21.1364 29.0455 21.1364C29.6288 21.1364 30.1742 21.0038 30.6818 20.7386C31.1894 20.4659 31.5985 20.0644 31.9091 19.5341C32.2273 19.0038 32.3826 18.3485 32.375 17.5682ZM48.9744 25.3409C47.2093 25.3409 45.6828 24.9659 44.3949 24.2159C43.1146 23.4583 42.1259 22.4053 41.429 21.0568C40.732 19.7008 40.3835 18.1288 40.3835 16.3409C40.3835 14.5379 40.732 12.9621 41.429 11.6136C42.1259 10.2576 43.1146 9.20454 44.3949 8.45454C45.6828 7.69697 47.2093 7.31818 48.9744 7.31818C50.7396 7.31818 52.2623 7.69697 53.5426 8.45454C54.8305 9.20454 55.8229 10.2576 56.5199 11.6136C57.2169 12.9621 57.5653 14.5379 57.5653 16.3409C57.5653 18.1288 57.2169 19.7008 56.5199 21.0568C55.8229 22.4053 54.8305 23.4583 53.5426 24.2159C52.2623 24.9659 50.7396 25.3409 48.9744 25.3409ZM48.9972 21.5909C49.8002 21.5909 50.4706 21.3636 51.0085 20.9091C51.5464 20.447 51.9517 19.8182 52.2244 19.0227C52.5047 18.2273 52.6449 17.322 52.6449 16.3068C52.6449 15.2917 52.5047 14.3864 52.2244 13.5909C51.9517 12.7955 51.5464 12.1667 51.0085 11.7045C50.4706 11.2424 49.8002 11.0114 48.9972 11.0114C48.1866 11.0114 47.5047 11.2424 46.9517 11.7045C46.4063 12.1667 45.9934 12.7955 45.7131 13.5909C45.4403 14.3864 45.304 15.2917 45.304 16.3068C45.304 17.322 45.4403 18.2273 45.7131 19.0227C45.9934 19.8182 46.4063 20.447 46.9517 20.9091C47.5047 21.3636 48.1866 21.5909 48.9972 21.5909ZM69.9972 7.54545V11.1818H59.4858V7.54545H69.9972ZM61.8722 3.36364H66.7131V19.6364C66.7131 20.0833 66.7813 20.4318 66.9176 20.6818C67.054 20.9242 67.2434 21.0947 67.4858 21.1932C67.7358 21.2917 68.0237 21.3409 68.3494 21.3409C68.5767 21.3409 68.804 21.322 69.0312 21.2841C69.2585 21.2386 69.4328 21.2045 69.554 21.1818L70.3153 24.7841C70.0729 24.8598 69.732 24.947 69.2926 25.0455C68.8532 25.1515 68.3191 25.2159 67.6903 25.2386C66.5237 25.2841 65.5009 25.1288 64.6222 24.7727C63.7509 24.4167 63.0729 23.8636 62.5881 23.1136C62.1032 22.3636 61.8646 21.4167 61.8722 20.2727V3.36364ZM80.9176 25.3409C79.1222 25.3409 77.5767 24.9773 76.2812 24.25C74.9934 23.5152 74.0009 22.4773 73.304 21.1364C72.607 19.7879 72.2585 18.1932 72.2585 16.3523C72.2585 14.5568 72.607 12.9811 73.304 11.625C74.0009 10.2689 74.982 9.21212 76.2472 8.45454C77.5199 7.69697 79.0123 7.31818 80.7244 7.31818C81.8759 7.31818 82.9479 7.50379 83.9403 7.875C84.9403 8.23864 85.8116 8.78788 86.554 9.52273C87.304 10.2576 87.8873 11.1818 88.304 12.2955C88.7206 13.4015 88.929 14.697 88.929 16.1818V17.5114H74.1903V14.5114H84.3722C84.3722 13.8144 84.2206 13.197 83.9176 12.6591C83.6146 12.1212 83.1941 11.7008 82.6562 11.3977C82.1259 11.0871 81.5085 10.9318 80.804 10.9318C80.0691 10.9318 79.4176 11.1023 78.8494 11.4432C78.2888 11.7765 77.8494 12.2273 77.5312 12.7955C77.2131 13.3561 77.0502 13.9811 77.0426 14.6705V17.5227C77.0426 18.3864 77.2017 19.1326 77.5199 19.7614C77.8456 20.3902 78.304 20.875 78.8949 21.2159C79.4858 21.5568 80.1866 21.7273 80.9972 21.7273C81.535 21.7273 82.0275 21.6515 82.4744 21.5C82.9214 21.3485 83.304 21.1212 83.6222 20.8182C83.9403 20.5152 84.1828 20.1439 84.3494 19.7045L88.8267 20C88.5994 21.0758 88.1335 22.0152 87.429 22.8182C86.732 23.6136 85.8305 24.2348 84.7244 24.6818C83.6259 25.1212 82.357 25.3409 80.9176 25.3409ZM98.5199 25.2841C97.1941 25.2841 95.9934 24.9432 94.9176 24.2614C93.8494 23.572 93.0009 22.5606 92.3722 21.2273C91.7509 19.8864 91.4403 18.2424 91.4403 16.2955C91.4403 14.2955 91.7623 12.6326 92.4062 11.3068C93.0502 9.97348 93.9063 8.97727 94.9744 8.31818C96.0502 7.65152 97.2282 7.31818 98.5085 7.31818C99.4858 7.31818 100.3 7.48485 100.952 7.81818C101.611 8.14394 102.141 8.55303 102.543 9.04545C102.952 9.5303 103.262 10.0076 103.474 10.4773H103.622V1.72727H108.452V25H103.679V22.2045H103.474C103.247 22.6894 102.925 23.1705 102.509 23.6477C102.099 24.1174 101.565 24.5076 100.906 24.8182C100.255 25.1288 99.4593 25.2841 98.5199 25.2841ZM100.054 21.4318C100.834 21.4318 101.493 21.2197 102.031 20.7955C102.577 20.3636 102.993 19.7614 103.281 18.9886C103.577 18.2159 103.724 17.3106 103.724 16.2727C103.724 15.2348 103.58 14.3333 103.293 13.5682C103.005 12.803 102.588 12.2121 102.043 11.7955C101.497 11.3788 100.834 11.1705 100.054 11.1705C99.2585 11.1705 98.5881 11.3864 98.0426 11.8182C97.4972 12.25 97.0843 12.8485 96.804 13.6136C96.5237 14.3788 96.3835 15.2652 96.3835 16.2727C96.3835 17.2879 96.5237 18.1856 96.804 18.9659C97.0919 19.7386 97.5047 20.3447 98.0426 20.7841C98.5881 21.2159 99.2585 21.4318 100.054 21.4318ZM117.409 25.3295C116.295 25.3295 115.303 25.1364 114.432 24.75C113.561 24.3561 112.871 23.7765 112.364 23.0114C111.864 22.2386 111.614 21.2765 111.614 20.125C111.614 19.1553 111.792 18.3409 112.148 17.6818C112.504 17.0227 112.989 16.4924 113.602 16.0909C114.216 15.6894 114.913 15.3864 115.693 15.1818C116.481 14.9773 117.307 14.8333 118.17 14.75C119.186 14.6439 120.004 14.5455 120.625 14.4545C121.246 14.3561 121.697 14.2121 121.977 14.0227C122.258 13.8333 122.398 13.553 122.398 13.1818V13.1136C122.398 12.3939 122.17 11.8371 121.716 11.4432C121.269 11.0492 120.633 10.8523 119.807 10.8523C118.936 10.8523 118.242 11.0455 117.727 11.4318C117.212 11.8106 116.871 12.2879 116.705 12.8636L112.227 12.5C112.455 11.4394 112.902 10.5227 113.568 9.75C114.235 8.9697 115.095 8.37121 116.148 7.95454C117.208 7.5303 118.436 7.31818 119.83 7.31818C120.799 7.31818 121.727 7.43182 122.614 7.65909C123.508 7.88636 124.299 8.23864 124.989 8.71591C125.686 9.19318 126.235 9.80682 126.636 10.5568C127.038 11.2992 127.239 12.1894 127.239 13.2273V25H122.648V22.5795H122.511C122.231 23.125 121.856 23.6061 121.386 24.0227C120.917 24.4318 120.352 24.7538 119.693 24.9886C119.034 25.2159 118.273 25.3295 117.409 25.3295ZM118.795 21.9886C119.508 21.9886 120.136 21.8485 120.682 21.5682C121.227 21.2803 121.655 20.8939 121.966 20.4091C122.277 19.9242 122.432 19.375 122.432 18.7614V16.9091C122.28 17.0076 122.072 17.0985 121.807 17.1818C121.549 17.2576 121.258 17.3295 120.932 17.3977C120.606 17.4583 120.28 17.5152 119.955 17.5682C119.629 17.6136 119.333 17.6553 119.068 17.6932C118.5 17.7765 118.004 17.9091 117.58 18.0909C117.155 18.2727 116.826 18.5189 116.591 18.8295C116.356 19.1326 116.239 19.5114 116.239 19.9659C116.239 20.625 116.477 21.1288 116.955 21.4773C117.439 21.8182 118.053 21.9886 118.795 21.9886ZM130.994 25V7.54545H135.835V25H130.994ZM133.426 5.29545C132.706 5.29545 132.089 5.05682 131.574 4.57954C131.066 4.0947 130.812 3.51515 130.812 2.84091C130.812 2.17424 131.066 1.60227 131.574 1.125C132.089 0.640151 132.706 0.397726 133.426 0.397726C134.146 0.397726 134.759 0.640151 135.267 1.125C135.782 1.60227 136.04 2.17424 136.04 2.84091C136.04 3.51515 135.782 4.0947 135.267 4.57954C134.759 5.05682 134.146 5.29545 133.426 5.29545ZM144.554 1.72727V25H139.713V1.72727H144.554ZM151.42 31.5455C150.807 31.5455 150.231 31.4962 149.693 31.3977C149.163 31.3068 148.723 31.1894 148.375 31.0455L149.466 27.4318C150.034 27.6061 150.545 27.7008 151 27.7159C151.462 27.7311 151.86 27.625 152.193 27.3977C152.534 27.1705 152.811 26.7841 153.023 26.2386L153.307 25.5L147.045 7.54545H152.136L155.75 20.3636H155.932L159.58 7.54545H164.705L157.92 26.8864C157.595 27.8258 157.152 28.6439 156.591 29.3409C156.038 30.0455 155.337 30.5871 154.489 30.9659C153.64 31.3523 152.617 31.5455 151.42 31.5455Z" fill="#7E22CE"/>
</svg>
