<svg width="33" height="25" viewBox="0 0 33 25" fill="none" xmlns="http://www.w3.org/2000/svg">
<path d="M0.786577 25V18.608C0.786577 16.6667 1.12985 14.607 1.81641 12.429C2.52663 10.2273 3.54463 8.10843 4.87038 6.07244C6.21982 4.01278 7.8415 2.22538 9.73544 0.710225L14.2809 4.40341C12.7894 6.53409 11.4873 8.75947 10.3746 11.0795C9.28563 13.3759 8.74112 15.8381 8.74112 18.4659V25H0.786577ZM18.9684 25V18.608C18.9684 16.6667 19.3117 14.607 19.9982 12.429C20.7085 10.2273 21.7264 8.10843 23.0522 6.07244C24.4016 4.01278 26.0233 2.22538 27.9173 0.710225L32.4627 4.40341C30.9712 6.53409 29.6692 8.75947 28.5565 11.0795C27.4674 13.3759 26.9229 15.8381 26.9229 18.4659V25H18.9684Z" fill="#fff"/>
</svg>
